<svg width="96" height="22" viewBox="0 0 96 22" fill="none" xmlns="http://www.w3.org/2000/svg">
<path d="M22.392 10.1456L17.674 10.8776L7.95721 8.26342L6.34998 8.58556L10.8537 10.5291L11.9992 11.7582L5.06033 12.8349L0.320066 9.60848L0 9.66158C0.675592 4.2177 5.41962 0 11.1715 0C17.0927 0 21.9459 4.46973 22.392 10.1456Z" fill="white"/>
<path d="M21.9377 14.2132C20.6459 14.4859 19.3517 14.6968 18.0908 14.8586L8.47964 21.076L6.4158 20.9725C7.8604 21.6318 9.47195 22 11.1715 22C16.2432 22 20.5314 18.7208 21.9377 14.2132Z" fill="white"/>
<path d="M5.89473 20.7184L11.9268 16.0554C11.9268 16.0554 11.9186 16.0386 11.9052 16.0087C11.8552 15.8978 11.734 15.6074 11.7024 15.3355C8.40255 15.4193 6.14347 15.2395 6.14347 15.2395C6.14347 15.2395 4.66514 15.1955 3.19374 15.0788L1.09367 15.9013C2.14097 17.9546 3.82578 19.6429 5.89473 20.7184Z" fill="white"/>
<path d="M0.578417 14.7229L0.597655 14.709L0.574506 14.7012L0.569872 14.6996C0.572711 14.7074 0.57556 14.7151 0.578417 14.7229Z" fill="white"/>
<path d="M0.236476 13.611C0.259472 13.5894 0.274132 13.5775 0.274132 13.5775L0.197714 13.4501C0.210232 13.5039 0.223154 13.5575 0.236476 13.611Z" fill="white"/>
<path d="M37.9693 5.65156V15.8889H35.8702V11.5329H31.3873V15.8889H29.2883V5.65156H31.3873V9.86089H35.8702V5.65156H37.9693Z" fill="white"/>
<path d="M41.0997 6.79556C40.7299 6.79556 40.4201 6.68311 40.1702 6.45822C39.9303 6.22355 39.8103 5.93511 39.8103 5.59289C39.8103 5.25067 39.9303 4.96711 40.1702 4.74222C40.4201 4.50756 40.7299 4.39022 41.0997 4.39022C41.4696 4.39022 41.7744 4.50756 42.0143 4.74222C42.2642 4.96711 42.3891 5.25067 42.3891 5.59289C42.3891 5.93511 42.2642 6.22355 42.0143 6.45822C41.7744 6.68311 41.4696 6.79556 41.0997 6.79556ZM42.1343 7.76356V15.8889H40.0352V7.76356H42.1343Z" fill="white"/>
<path d="M47.4616 7.63155C48.0813 7.63155 48.626 7.75378 49.0958 7.99822C49.5656 8.23289 49.9354 8.54089 50.2053 8.92222V7.76356H52.3193V15.9476C52.3193 16.7004 52.1644 17.3702 51.8545 17.9569C51.5446 18.5533 51.0799 19.0227 50.4602 19.3649C49.8404 19.7169 49.0908 19.8929 48.2112 19.8929C47.0318 19.8929 46.0622 19.624 45.3026 19.0862C44.5529 18.5484 44.1281 17.8151 44.0282 16.8862H46.1122C46.2221 17.2578 46.457 17.5511 46.8169 17.7662C47.1867 17.9911 47.6315 18.1036 48.1512 18.1036C48.761 18.1036 49.2557 17.9227 49.6355 17.5609C50.0154 17.2089 50.2053 16.6711 50.2053 15.9476V14.6862C49.9354 15.0676 49.5606 15.3853 49.0808 15.6396C48.611 15.8938 48.0713 16.0209 47.4616 16.0209C46.7619 16.0209 46.1222 15.8449 45.5425 15.4929C44.9627 15.1409 44.5029 14.6471 44.1631 14.0116C43.8333 13.3662 43.6683 12.628 43.6683 11.7969C43.6683 10.9756 43.8333 10.2471 44.1631 9.61156C44.5029 8.976 44.9577 8.48711 45.5275 8.14489C46.1072 7.80267 46.7519 7.63155 47.4616 7.63155ZM50.2053 11.8262C50.2053 11.3276 50.1053 10.9022 49.9054 10.5502C49.7055 10.1884 49.4356 9.91467 49.0958 9.72889C48.756 9.53333 48.3911 9.43556 48.0013 9.43556C47.6115 9.43556 47.2517 9.52844 46.9218 9.71422C46.592 9.9 46.3221 10.1738 46.1122 10.5356C45.9123 10.8876 45.8123 11.308 45.8123 11.7969C45.8123 12.2858 45.9123 12.716 46.1122 13.0876C46.3221 13.4493 46.592 13.728 46.9218 13.9236C47.2617 14.1191 47.6215 14.2169 48.0013 14.2169C48.3911 14.2169 48.756 14.124 49.0958 13.9382C49.4356 13.7427 49.7055 13.4689 49.9054 13.1169C50.1053 12.7551 50.2053 12.3249 50.2053 11.8262Z" fill="white"/>
<path d="M59.0471 7.64622C59.6768 7.64622 60.2366 7.78311 60.7264 8.05689C61.2161 8.32089 61.5959 8.71689 61.8658 9.24489C62.1457 9.76311 62.2856 10.3889 62.2856 11.1222V15.8889H60.1866V11.4009C60.1866 10.7556 60.0217 10.2618 59.6918 9.91956C59.362 9.56756 58.9122 9.39156 58.3425 9.39156C57.7627 9.39156 57.303 9.56756 56.9631 9.91956C56.6333 10.2618 56.4683 10.7556 56.4683 11.4009V15.8889H54.3693V5.03556H56.4683V8.77556C56.7382 8.42356 57.0981 8.14978 57.5478 7.95422C57.9976 7.74889 58.4974 7.64622 59.0471 7.64622Z" fill="white"/>
<path d="M74.5968 7.64622C75.6164 7.64622 76.436 7.95422 77.0557 8.57022C77.6854 9.17644 78.0002 10.0271 78.0002 11.1222V15.8889H75.9012V11.4009C75.9012 10.7653 75.7363 10.2813 75.4065 9.94889C75.0766 9.60667 74.6268 9.43556 74.0571 9.43556C73.4874 9.43556 73.0326 9.60667 72.6927 9.94889C72.3629 10.2813 72.198 10.7653 72.198 11.4009V15.8889H70.099V11.4009C70.099 10.7653 69.934 10.2813 69.6042 9.94889C69.2743 9.60667 68.8245 9.43556 68.2548 9.43556C67.6751 9.43556 67.2153 9.60667 66.8755 9.94889C66.5456 10.2813 66.3807 10.7653 66.3807 11.4009V15.8889H64.2817V7.76356H66.3807V8.74622C66.6506 8.404 66.9954 8.13511 67.4152 7.93955C67.845 7.744 68.3148 7.64622 68.8245 7.64622C69.4742 7.64622 70.054 7.78311 70.5637 8.05689C71.0735 8.32089 71.4683 8.70222 71.7482 9.20089C72.0181 8.73156 72.4079 8.35511 72.9176 8.07155C73.4374 7.788 73.9971 7.64622 74.5968 7.64622Z" fill="white"/>
<path d="M83.6804 16.0209C82.8807 16.0209 82.1611 15.8498 81.5214 15.5076C80.8817 15.1556 80.3769 14.6618 80.0071 14.0262C79.6472 13.3907 79.4673 12.6573 79.4673 11.8262C79.4673 10.9951 79.6522 10.2618 80.0221 9.62622C80.4019 8.99067 80.9166 8.50178 81.5663 8.15956C82.216 7.80756 82.9407 7.63155 83.7403 7.63155C84.5399 7.63155 85.2646 7.80756 85.9143 8.15956C86.564 8.50178 87.0738 8.99067 87.4436 9.62622C87.8234 10.2618 88.0133 10.9951 88.0133 11.8262C88.0133 12.6573 87.8184 13.3907 87.4286 14.0262C87.0488 14.6618 86.529 15.1556 85.8693 15.5076C85.2196 15.8498 84.49 16.0209 83.6804 16.0209ZM83.6804 14.2316C84.0602 14.2316 84.415 14.1436 84.7449 13.9676C85.0847 13.7818 85.3546 13.508 85.5545 13.1462C85.7544 12.7844 85.8543 12.3444 85.8543 11.8262C85.8543 11.0538 85.6444 10.4622 85.2246 10.0516C84.8148 9.63111 84.3101 9.42089 83.7103 9.42089C83.1106 9.42089 82.6059 9.63111 82.1961 10.0516C81.7962 10.4622 81.5963 11.0538 81.5963 11.8262C81.5963 12.5987 81.7912 13.1951 82.1811 13.6156C82.5809 14.0262 83.0806 14.2316 83.6804 14.2316Z" fill="white"/>
<path d="M92.7315 16.0209C92.0519 16.0209 91.4421 15.9036 90.9024 15.6689C90.3626 15.4244 89.9328 15.0969 89.613 14.6862C89.3031 14.2756 89.1332 13.8209 89.1032 13.3222H91.2172C91.2572 13.6351 91.4121 13.8942 91.682 14.0996C91.9619 14.3049 92.3067 14.4076 92.7165 14.4076C93.1163 14.4076 93.4262 14.3293 93.6461 14.1729C93.876 14.0164 93.9909 13.816 93.9909 13.5716C93.9909 13.3076 93.851 13.112 93.5711 12.9849C93.3013 12.848 92.8665 12.7013 92.2668 12.5449C91.647 12.3982 91.1373 12.2467 90.7375 12.0902C90.3477 11.9338 90.0078 11.6942 89.7179 11.3716C89.4381 11.0489 89.2981 10.6138 89.2981 10.0662C89.2981 9.61644 89.4281 9.20578 89.688 8.83422C89.9578 8.46267 90.3377 8.16933 90.8274 7.95422C91.3272 7.73911 91.9119 7.63155 92.5816 7.63155C93.5711 7.63155 94.3608 7.876 94.9505 8.36489C95.5402 8.844 95.8651 9.49422 95.925 10.3156H93.916C93.886 9.99289 93.7461 9.73867 93.4962 9.55289C93.2563 9.35733 92.9314 9.25955 92.5216 9.25955C92.1418 9.25955 91.8469 9.328 91.637 9.46489C91.4371 9.60178 91.3372 9.79244 91.3372 10.0369C91.3372 10.3107 91.4771 10.5209 91.757 10.6676C92.0369 10.8044 92.4717 10.9462 93.0614 11.0929C93.6611 11.2396 94.1559 11.3911 94.5457 11.5476C94.9355 11.704 95.2703 11.9484 95.5502 12.2809C95.8401 12.6036 95.99 13.0338 96 13.5716C96 14.0409 95.8651 14.4613 95.5952 14.8329C95.3353 15.2044 94.9555 15.4978 94.4557 15.7129C93.966 15.9182 93.3912 16.0209 92.7315 16.0209Z" fill="white"/>
</svg>
